<svg xmlns="http://www.w3.org/2000/svg" xmlns:xlink="http://www.w3.org/1999/xlink">
  <style type="text/css">
    <![CDATA[
    .i {
      display: none;
      fill: #FFFFFF;
    }

    .i:target {
      display: block;
    }
    ]]>
  </style>
  <svg width="20" height="20" viewBox="0 0 20 20" fill="none" class="i" id="avatar">
    <path d="M17.7168 15.1431C17.1375 14.7622 16.2271 14.4765 15.3167 14.286V15.0479C15.8133 15.2383 16.3099 15.3336 16.7237 15.6193C19.041 16.9525 16.5581 18.9524 9.52331 18.9524C2.48849 18.9524 0.0883673 17.0478 2.32296 15.6193C2.65401 15.4288 3.15059 15.2383 3.72992 15.0479V14.286C2.81954 14.5717 1.90915 14.8574 1.32981 15.1431C-1.81517 16.9525 0.502181 20 9.52331 20C18.5444 20 20.8618 16.9525 17.7168 15.1431Z" fill="white"/>
    <g>
      <path d="M8.12177 0.0732562C7.73844 0.0732562 7.25928 0.659306 7.16345 1.05001C7.06762 2.02676 7.06762 2.90582 7.16345 3.88257C7.25928 4.27327 7.64261 4.76165 8.12177 4.85932C9.08009 4.957 9.94258 4.957 10.9009 4.85932C11.3801 4.76165 11.7634 4.27327 11.8592 3.88257C11.9551 2.90582 11.9551 2.02676 11.8592 1.05001C11.8592 0.659306 11.2842 0.170931 10.9009 0.0732562C10.0384 -0.0244187 9.08009 -0.0244187 8.12177 0.0732562Z" fill="white"/>
      <path d="M3.90516 7.49656C3.80933 8.08261 3.80933 8.66865 3.80933 9.2547V11.0128C3.80933 11.5012 4.19265 11.7943 4.57598 11.7943H5.15097V8.864C5.15097 8.57098 5.34264 8.37563 5.63014 8.37563C5.91763 8.37563 6.1093 8.57098 6.1093 8.864V11.7943V15.4082C6.1093 15.7989 6.49262 16.1896 6.87595 16.1896H7.64261C8.2176 16.1896 8.60093 15.7989 8.60093 15.2129V13.2594C8.60093 12.6733 8.98426 12.2826 9.55925 12.2826C10.1342 12.2826 10.5176 12.6733 10.5176 13.2594V15.2129C10.5176 15.7989 10.9009 16.1896 11.4759 16.1896H12.0509C12.53 16.1896 12.8175 15.7989 12.8175 15.4082V11.7943V8.864C12.8175 8.57098 13.0092 8.37563 13.2967 8.37563C13.5842 8.37563 13.7759 8.57098 13.7759 8.864V11.7943C14.3509 11.7943 15.2133 11.8919 15.2133 11.0128C15.2133 10.0361 15.3092 8.57098 15.1175 7.49656C15.0217 7.00819 14.1592 6.12911 13.3925 6.03144C10.9009 5.83609 8.12177 5.83609 5.63014 6.03144C4.86348 6.12911 4.00099 6.91051 3.90516 7.49656Z" fill="white"/>
    </g>
  </svg>
  <svg width="10" height="10" viewBox="0 0 10 10" fill="none" class="i" id="edit">
    <path d="M9.44 8.863H6.277a.565.565 0 0 0-.56.568c0 .315.251.569.56.569H9.44a.564.564 0 0 0 .56-.569.565.565 0 0 0-.56-.568ZM4.06 2.169 7.059 4.59a.172.172 0 0 1 .028.238L3.533 9.46a1.167 1.167 0 0 1-.906.454l-1.94.024a.221.221 0 0 1-.217-.173L.029 7.849c-.077-.353 0-.717.223-.998l3.572-4.653a.166.166 0 0 1 .237-.028Zm4.34.978-.577.722a.166.166 0 0 1-.235.027L4.587 1.464a.171.171 0 0 1-.024-.24L5.12.532C5.626-.12 6.508-.18 7.22.388l.817.651c.335.263.559.61.635.974.088.4-.006.794-.27 1.134Z"/>
  </svg>
  <svg width="18" height="20" viewBox="0 0 18 20" fill="none" class="i" id="blog">
    <path fill-rule="evenodd" clip-rule="evenodd" d="M18 9.243c0-.53-.45-.964-1-.964H1c-.55 0-1 .434-1 .964v5.938C0 18.072 1.5 20 5 20h8c3.5 0 5-1.928 5-4.82V9.244Zm-5.5 4.01c-.26 0-.52-.106-.71-.28a.995.995 0 0 1-.29-.684c0-.25.11-.501.29-.684.1-.087.2-.154.33-.203a.989.989 0 0 1 .58-.057c.06.01.12.028.18.057.06.02.12.049.18.087l.15.116c.18.183.29.434.29.684 0 .25-.11.501-.29.684l-.15.116a.772.772 0 0 1-.18.087.655.655 0 0 1-.18.058c-.07.01-.14.019-.2.019Zm-7.71-.28c.19.174.45.28.71.28.26 0 .52-.106.71-.28a.995.995 0 0 0 .29-.684c0-.25-.11-.501-.29-.684a.94.94 0 0 0-.33-.203 1.027 1.027 0 0 0-1.09.203.995.995 0 0 0-.29.684c0 .25.11.501.29.684Zm3.5 0c.19.174.45.28.71.28.062 0 .116-.008.177-.016l.023-.003c.06-.01.12-.03.18-.058.06-.02.12-.048.18-.087l.15-.116a.995.995 0 0 0 .29-.684c0-.25-.11-.501-.29-.684-.28-.27-.72-.357-1.09-.203a.94.94 0 0 0-.33.203.995.995 0 0 0-.29.684c0 .25.11.501.29.684ZM5.12 16.55c.12.049.25.078.38.078.062 0 .116-.008.177-.017l.023-.003c.06-.01.12-.029.18-.058a.768.768 0 0 0 .28-.161 1.63 1.63 0 0 1 .05-.041.995.995 0 0 0 .29-.684c0-.25-.11-.502-.29-.685l-.15-.115a.772.772 0 0 0-.18-.087.651.651 0 0 0-.18-.058.99.99 0 0 0-.58.058c-.13.048-.23.116-.33.202a.995.995 0 0 0-.29.685c0 .25.11.5.29.684.1.087.2.154.33.202Zm3.88.078c-.26 0-.52-.107-.71-.28a.995.995 0 0 1-.29-.684c0-.25.11-.502.29-.685.37-.356 1.05-.356 1.42 0 .18.184.29.434.29.685 0 .25-.11.5-.29.684-.19.173-.45.28-.71.28Zm2.79-.28c.19.173.45.28.71.28.26 0 .52-.107.71-.28a.995.995 0 0 0 .29-.684c0-.25-.11-.502-.29-.685-.37-.356-1.05-.356-1.42 0a.995.995 0 0 0-.29.685c0 .25.11.5.29.684Z" fill="#fff"/>
    <path d="M13.75 2.227V.723C13.75.328 13.41 0 13 0s-.75.328-.75.723v1.446h-6.5V.723C5.75.328 5.41 0 5 0s-.75.328-.75.723v1.504C1.55 2.467.24 4.019.04 6.323c-.02.28.22.51.5.51h16.92c.29 0 .53-.24.5-.51-.2-2.304-1.51-3.856-4.21-4.096Z" fill="#fff"/>
  </svg>
  <svg width="20" height="20" viewBox="0 0 20 20" fill="none" class="i" id="chat">
    <path fill-rule="evenodd" clip-rule="evenodd" d="M0 4.99v6.98c0 2.75 2.24 4.98 5 4.98h1.5c.28 0 .64.18.8.4l1.5 1.99c.66.88 1.74.88 2.4 0l1.5-1.99c.19-.25.49-.4.8-.4H15c2.76 0 5-2.23 5-4.98V4.99C20 2.23 17.76 0 15 0H5C2.24 0 0 2.23 0 4.99ZM5 9c0 .55.44 1 1 1s1-.45 1-1-.45-1-1-1-1 .45-1 1Zm5 1c-.56 0-1-.45-1-1s.45-1 1-1 1 .45 1 1-.44 1-1 1Zm4 0c-.56 0-1-.45-1-1s.45-1 1-1 1 .45 1 1-.44 1-1 1Z" fill="#fff"/>
  </svg>
  <svg width="22" height="20" viewBox="0 0 22 20" fill="none" class="i" id="friends">
    <path d="M8.084 13.175c-4.36 0-8.084.68-8.084 3.4C0 19.296 3.7 20 8.084 20c4.36 0 8.085-.68 8.085-3.4 0-2.721-3.7-3.425-8.085-3.425Zm13.673.346c-.382-.806-1.305-1.358-2.708-1.63-.662-.16-2.455-.386-4.122-.354-.025.003-.04.02-.041.03-.003.018.004.043.036.062.771.376 3.75 2.016 3.375 5.474a.229.229 0 0 0 .257.258c.733-.104 2.619-.505 3.203-1.753a2.362 2.362 0 0 0 0-2.087ZM8.084 10.583c2.97 0 5.35-2.354 5.35-5.291 0-2.938-2.38-5.292-5.35-5.292-2.968 0-5.35 2.354-5.35 5.292 0 2.937 2.382 5.291 5.35 5.291Zm7.506-5.195a7.125 7.125 0 0 1-1.25 4.05c-.083.12-.01.28.135.306.2.033.405.053.615.058 2.088.054 3.962-1.276 4.48-3.278.767-2.972-1.484-5.64-4.353-5.64-.31 0-.609.032-.9.09-.04.009-.082.028-.104.062-.028.044-.007.1.02.137a7.174 7.174 0 0 1 1.358 4.215Z" fill="#fff"/>
  </svg>
  <svg width="22" height="15" viewBox="0 0 27 20" fill="none" class="i" id="groups">
    <path d="M13.437 10.584c2.868 0 5.166-2.355 5.166-5.292C18.603 2.354 16.304 0 13.437 0 10.57 0 8.272 2.354 8.272 5.292c0 2.937 2.298 5.292 5.165 5.292Zm11.216-4.06C25.395 3.552 23.22.883 20.451.883c-.3 0-.589.034-.87.091-.037.01-.08.028-.101.062-.026.043-.007.1.02.137a7.351 7.351 0 0 1 1.31 4.214 7.297 7.297 0 0 1-1.207 4.051c-.08.12-.009.28.13.305a4.323 4.323 0 0 0 4.92-3.22ZM7.419.974a4.237 4.237 0 0 0-.87-.09c-2.77 0-4.945 2.668-4.202 5.64a4.32 4.32 0 0 0 4.919 3.22.199.199 0 0 0 .13-.305A7.3 7.3 0 0 1 6.19 5.387c0-1.563.48-3.019 1.311-4.213.026-.037.046-.095.02-.138-.022-.034-.063-.052-.101-.062Zm6.018 12.201c-4.234 0-7.806.704-7.806 3.424 0 2.72 3.595 3.4 7.806 3.4 4.235 0 7.807-.704 7.807-3.424 0-2.72-3.596-3.4-7.807-3.4Zm13.329.345c-.37-.805-1.26-1.358-2.615-1.63-.64-.159-2.37-.384-3.98-.354-.025.004-.038.02-.04.032-.003.016.003.043.035.06.744.377 3.62 2.017 3.258 5.476-.015.15.102.28.248.257.708-.104 2.53-.505 3.094-1.753a2.443 2.443 0 0 0 0-2.087ZM2.85 11.89c-1.356.272-2.246.825-2.615 1.63a2.438 2.438 0 0 0 0 2.089C.8 16.856 2.62 17.258 3.328 17.36c.146.023.263-.105.248-.256-.362-3.458 2.514-5.099 3.259-5.476.03-.018.037-.044.034-.06-.002-.012-.014-.029-.038-.03-1.611-.032-3.341.193-3.982.353Z" fill="#fff"/>
  </svg>
  <svg width="19" height="20" viewBox="0 0 19 20" fill="none" class="i" id="home">
    <path fill-rule="evenodd" clip-rule="evenodd" d="M15.544 20a3.46 3.46 0 0 0 2.443-1A3.41 3.41 0 0 0 19 16.579V7.866c0-.735-.328-1.431-.895-1.902L11.443.673a3.115 3.115 0 0 0-3.958.071L.967 5.964A2.474 2.474 0 0 0 0 7.865v8.703C0 18.464 1.547 20 3.456 20h12.088ZM9.5 14.994a.75.75 0 0 0-.75.75v2.5a.75.75 0 0 0 1.5 0v-2.5a.75.75 0 0 0-.75-.75Z" fill="#fff"/>
  </svg>
  <svg width="17" height="20" viewBox="0 0 17 20" fill="none" class="i" id="inventory">
    <path fill-rule="evenodd" clip-rule="evenodd" d="M16.873 11.867c-.084-.498-.507-.996-.93-1.162 0-1.742-.17-3.568-.508-5.31-.169-.997-1.1-1.992-2.199-2.324-.211-.042-.444-.083-.676-.125a41.22 41.22 0 0 1-.677-.124V1.494c0-.83-.676-1.494-1.522-1.494H6.639c-.845 0-1.522.664-1.522 1.494v1.328c-.212.041-.444.083-.677.124-.232.042-.465.083-.676.125-1.015.249-1.946 1.244-2.2 2.323-.332 1.716-.42 3.513-.503 5.231l-.004.08c-.507.166-.846.664-.93 1.162a15.053 15.053 0 0 0 0 3.9c.084.582.507 1.08 1.1 1.163.042 0 .105.02.169.04a.608.608 0 0 0 .169.042v.083c.169.996 1.1 1.992 2.199 2.324C5.37 19.751 6.893 20 8.5 20c1.607 0 3.214-.166 4.736-.58 1.015-.25 1.946-1.246 2.2-2.325v-.083c.042 0 .105-.02.168-.041a.664.664 0 0 1 .17-.041c.507-.166 1.015-.664 1.1-1.162a15.148 15.148 0 0 0 0-3.9ZM7.231 1.66c-.253 0-.423.166-.423.415v.498c1.1-.083 2.284-.083 3.383 0v-.498c0-.25-.169-.415-.422-.415H7.23Zm3.805 4.981H5.962c-.508 0-.846.332-.846.83 0 .498.338.83.846.83h5.074c.508 0 .846-.332.846-.83 0-.498-.338-.83-.846-.83Zm-.842 4.302a12.135 12.135 0 0 0-3.468 0c-.677.083-1.353.747-1.522 1.41a12.61 12.61 0 0 0 0 3.57c.084.663.845 1.244 1.522 1.41.592.083 1.184.166 1.692.166.592 0 1.184-.083 1.776-.166.676-.083 1.353-.747 1.522-1.41.17-1.163.17-2.408 0-3.57-.084-.663-.761-1.327-1.522-1.41Z" fill="#fff"/>
  </svg>
  <svg width="17" height="15" viewBox="0 0 17 15" fill="none" class="i" id="messages">
    <path d="M16.43 10.63a4.146 4.146 0 0 1-4.132 4.157H4.149A4.146 4.146 0 0 1 0 10.647v-.008s.005-3.636.012-5.465a.41.41 0 0 1 .663-.322 892.134 892.134 0 0 1 5.486 4.41 3.341 3.341 0 0 0 2.079.73c.755 0 1.495-.263 2.078-.74.043-.029 3.456-2.767 5.437-4.341a.41.41 0 0 1 .667.32c.008 1.815.008 5.4.008 5.4Z" fill="#4C84FF"/>
    <path d="M16 2.197A4.136 4.136 0 0 0 12.347 0H4.15A4.135 4.135 0 0 0 .497 2.197a.71.71 0 0 0 .181.885l6.1 4.88c.427.344.944.516 1.462.516h.016c.518 0 1.035-.172 1.463-.517l6.1-4.879a.71.71 0 0 0 .18-.885Z" fill="#4C84FF"/>
  </svg>
  <svg width="14" height="14" viewBox="0 0 14 14" fill="none" class="i" id="moreinfo">
    <path d="M6.966 0A6.971 6.971 0 0 0 .002 6.964a6.97 6.97 0 0 0 6.964 6.964 6.971 6.971 0 0 0 6.964-6.964A6.971 6.971 0 0 0 6.966 0Zm0 .929A6.028 6.028 0 0 1 13 6.964a6.028 6.028 0 0 1-6.035 6.035A6.028 6.028 0 0 1 .93 6.964 6.028 6.028 0 0 1 6.966.929Zm0 2.166a2.328 2.328 0 0 0-2.321 2.321.464.464 0 1 0 .928 0c0-.774.618-1.392 1.393-1.392s1.393.618 1.393 1.392c.005.636-.322.961-.779 1.393-.228.216-.482.44-.696.735a1.907 1.907 0 0 0-.382 1.122.464.464 0 1 0 .928 0c0-.23.067-.389.203-.575.136-.187.348-.385.585-.61.475-.448 1.076-1.076 1.07-2.065v-.004a2.328 2.328 0 0 0-2.322-2.317Zm0 6.5a.619.619 0 1 0 0 1.238.619.619 0 0 0 0-1.238Z" fill="#fff"/>
  </svg>
  <svg width="14" height="17" viewBox="0 0 14 17" fill="none" class="i" id="notifications">
    <path d="M9.212 14.795a2.476 2.476 0 0 1-2.325 1.635c-.65 0-1.29-.263-1.742-.731a2.268 2.268 0 0 1-.575-.912c.107.016.214.024.329.04.189.026.386.05.583.067.468.04.945.065 1.421.065.469 0 .937-.024 1.397-.065.172-.017.345-.025.51-.05l.402-.049Zm3.705-4.535-.822-1.363c-.172-.304-.328-.88-.328-1.216V5.603A4.868 4.868 0 0 0 6.904.739 4.868 4.868 0 0 0 2.04 5.603V7.68c0 .337-.156.912-.328 1.208l-.83 1.372c-.329.55-.403 1.158-.197 1.716.197.55.665.978 1.273 1.183 1.594.543 3.27.805 4.946.805 1.675 0 3.351-.262 4.945-.796a1.97 1.97 0 0 0 1.232-1.192 1.953 1.953 0 0 0-.164-1.716Z" fill="#FF4757"/>
    <path opacity=".3" d="M8.735 1.084A5.01 5.01 0 0 0 6.903.74a4.83 4.83 0 0 0-1.823.345A2.056 2.056 0 0 1 6.903 0c.78 0 1.47.419 1.832 1.084Z" fill="#FF4757"/>
  </svg>
  <svg width="22" height="22" viewBox="0 0 8 10" fill="none" class="i" id="player">
    <path d="M.002 7.979c0-1.224 1.612-1.53 3.5-1.53 1.898 0 3.5.317 3.5 1.541s-1.612 1.53-3.5 1.53c-1.898 0-3.5-.317-3.5-1.541Zm5.816-5.078c0 1.322-1.03 2.382-2.316 2.382-1.285 0-2.316-1.06-2.316-2.382C1.186 1.58 2.216.52 3.502.52c1.286 0 2.316 1.06 2.316 2.381Z" fill="#fff"/>
  </svg>
  <svg width="8" height="10" viewBox="0 0 8 10" fill="none" class="i" id="playersmall">
    <path d="M.002 7.979c0-1.224 1.612-1.53 3.5-1.53 1.898 0 3.5.317 3.5 1.541s-1.612 1.53-3.5 1.53c-1.898 0-3.5-.317-3.5-1.541Zm5.816-5.078c0 1.322-1.03 2.382-2.316 2.382-1.285 0-2.316-1.06-2.316-2.382C1.186 1.58 2.216.52 3.502.52c1.286 0 2.316 1.06 2.316 2.381Z" fill="#fff"/>
  </svg>
  <svg width="11" height="10" viewBox="0 0 11 10" fill="none" class="i" id="rating">
    <path d="M8.894 3.707c.395 0 .74.148.935.407.19.255.226.574.095.903l-1.23 3.466c-.15.57-.825 1.037-1.495 1.037h-1.95c-.336 0-.81-.106-1.021-.3L2.696 8.122c-.024.627-.344.883-1.089.883h-.515c-.775 0-1.09-.277-1.09-.962V3.387c0-.685.315-.962 1.09-.962h.515c.776 0 1.09.277 1.09.962v.348L4.739.93c.215-.301.75-.514 1.205-.357.49.153.816.662.706 1.116l-.255 1.518a.414.414 0 0 0 .105.356c.085.093.21.144.345.144h2.05Z" fill="#fff"/>
  </svg>
  <svg width="19" height="20" viewBox="0 0 19 20" fill="none" class="i" id="robux">
    <path d="m11.557.533 5.386 3.01C18.216 4.254 19 5.568 19 6.99v6.02c0 1.422-.784 2.736-2.057 3.447l-5.386 3.01a4.233 4.233 0 0 1-4.114 0l-5.386-3.01C.784 15.746 0 14.432 0 13.01V6.99c0-1.422.784-2.736 2.057-3.447L7.443.533a4.233 4.233 0 0 1 4.114 0Zm-3.43 1.135L2.73 4.683a2.644 2.644 0 0 0-1.374 2.302v6.03c0 .95.524 1.827 1.374 2.302l5.396 3.015c.85.475 1.897.475 2.747 0l5.395-3.015a2.643 2.643 0 0 0 1.374-2.302v-6.03c0-.95-.523-1.827-1.374-2.302l-5.395-3.015a2.828 2.828 0 0 0-2.747 0Zm2.43 2.1 3.993 2.23a2.036 2.036 0 0 1 1.057 1.773v4.46c0 .732-.403 1.408-1.057 1.773l-3.992 2.23a2.176 2.176 0 0 1-2.115 0l-3.992-2.23a2.036 2.036 0 0 1-1.058-1.773v-4.46c0-.731.403-1.407 1.058-1.773l3.992-2.23a2.176 2.176 0 0 1 2.115 0Zm.979 4.263H7.464v3.94h4.072v-3.94Z" fill="#fff"/>
  </svg>
  <svg width="12" height="12" viewBox="0 0 12 12" fill="none" class="i" id="search">
    <path d="M9.72 5.331c0 2.387-1.947 4.332-4.36 4.332C2.947 9.663 1 7.718 1 5.33 1 2.944 2.947 1 5.36 1c2.413 0 4.36 1.944 4.36 4.331Z" fill="#fff" stroke="#fff" stroke-width="2"/>
    <path d="M11.892 10.03c-.197-.361-.613-.563-1.172-.563-.423 0-.786.172-1 .468-.214.296-.261.692-.13 1.089.255.769.701.94.945.97a.677.677 0 0 0 .113.006c.262 0 .667-.113 1.06-.698.315-.456.374-.912.184-1.272Z" fill="#fff"/>
  </svg>
  <svg width="18" height="16" viewBox="0 0 18 16" fill="none" class="i" id="settings">
    <path fill-rule="evenodd" clip-rule="evenodd" d="M.933 7.254v1.492c0 .881.722 1.61 1.614 1.61 1.538 0 2.166 1.085 1.393 2.416a1.607 1.607 0 0 0 .595 2.195l1.47.839c.67.398 1.537.161 1.937-.508l.093-.162c.773-1.33 2.03-1.33 2.795 0l.094.162c.399.669 1.266.906 1.937.508l1.47-.84a1.605 1.605 0 0 0 .594-2.194c-.773-1.33-.144-2.416 1.393-2.416.892 0 1.615-.729 1.615-1.61V7.254c0-.89-.731-1.61-1.615-1.61-1.537 0-2.166-1.085-1.393-2.416a1.607 1.607 0 0 0-.595-2.195L12.86.194c-.67-.398-1.537-.161-1.936.509l-.094.16c-.773 1.331-2.03 1.331-2.795 0l-.093-.16c-.4-.67-1.266-.907-1.937-.509l-1.47.84a1.607 1.607 0 0 0-.595 2.194c.773 1.33.145 2.416-1.393 2.416-.892 0-1.614.729-1.614 1.61ZM12.19 8a2.758 2.758 0 0 1-2.762 2.755A2.758 2.758 0 0 1 6.668 8a2.758 2.758 0 0 1 2.76-2.755A2.758 2.758 0 0 1 12.19 8Z" fill="#00B95B"/>
  </svg>
  <svg width="37" height="36" viewBox="0 0 37 36" fill="none" class="i" id="statgroup">
    <circle opacity=".1" cx="18.002" cy="18" r="18" fill="#FFDC64"/>
    <path d="M17.964 18.35a3.155 3.155 0 0 0 3.157-3.175A3.155 3.155 0 0 0 17.963 12a3.155 3.155 0 0 0-3.157 3.175 3.155 3.155 0 0 0 3.157 3.175Zm6.854-2.436c.453-1.783-.876-3.384-2.568-3.384-.184 0-.36.02-.532.055-.023.005-.049.016-.062.037-.015.026-.004.06.013.082.508.717.8 1.59.8 2.528 0 .899-.268 1.736-.738 2.431a.119.119 0 0 0 .08.183c.118.021.24.032.363.035 1.232.033 2.338-.765 2.644-1.967Zm-10.533-3.329a2.638 2.638 0 0 0-.531-.055c-1.693 0-3.022 1.602-2.568 3.385.305 1.201 1.411 1.999 2.643 1.966a2.4 2.4 0 0 0 .363-.035.119.119 0 0 0 .08-.183 4.323 4.323 0 0 1-.738-2.43c0-.939.293-1.812.801-2.529.016-.022.028-.056.012-.082-.013-.02-.038-.032-.062-.037Zm3.679 7.32c-2.588 0-4.771.423-4.771 2.055 0 1.632 2.197 2.04 4.77 2.04 2.588 0 4.771-.423 4.771-2.055 0-1.632-2.197-2.04-4.77-2.04Zm8.145.208c-.226-.484-.77-.816-1.598-.978-.391-.096-1.449-.231-2.433-.213-.014.002-.023.012-.024.019-.002.01.002.026.022.036.454.226 2.212 1.21 1.99 3.286-.009.09.063.167.152.154.433-.063 1.546-.303 1.89-1.052a1.433 1.433 0 0 0 0-1.252Zm-14.616-.979c-.828.163-1.372.495-1.598.979a1.439 1.439 0 0 0 0 1.252c.346.749 1.458.99 1.89 1.051.09.014.161-.063.152-.154-.22-2.075 1.537-3.059 1.992-3.285.019-.01.023-.026.02-.036 0-.007-.008-.017-.023-.019-.984-.018-2.041.117-2.433.212Z" fill="#FFDC64"/>
  </svg>
  <svg width="37" height="36" viewBox="0 0 37 36" fill="none" class="i" id="statsales">
    <circle opacity=".1" cx="18.002" cy="18" r="18" fill="#4C84FF"/>
    <path d="M22.147 18.816a.821.821 0 0 0-.618-.282h-2.148a1.916 1.916 0 0 1-1.914-1.914v-2.15a.821.821 0 0 0-.282-.617.813.813 0 0 0-.642-.198 5.24 5.24 0 0 0-3.552 2.118 5.14 5.14 0 0 0-.895 4.026 5.187 5.187 0 0 0 5.1 4.2 5.1 5.1 0 0 0 3.03-.99 5.24 5.24 0 0 0 2.119-3.552.807.807 0 0 0-.198-.642Z" fill="#4C84FF"/>
    <path d="M23.803 14.97a4.19 4.19 0 0 0-2.772-2.773c-.99-.287-1.674-.263-2.148.09-.57.427-.636 1.195-.636 1.74v1.495c0 1.476.672 2.226 1.992 2.226h1.722c.54 0 1.314-.066 1.74-.636.366-.468.396-1.152.102-2.142Z" fill="#4C84FF"/>
  </svg>
  <svg width="37" height="36" viewBox="0 0 37 36" fill="none" class="i" id="statsitems">
    <circle opacity=".1" cx="18.002" cy="18" r="18" fill="#00B95B"/>
    <path d="M20.774 24H15.23c-1.615 0-2.928-1.301-2.928-2.901V17.9c0-1.6 1.313-2.901 2.928-2.901h5.544c1.614 0 2.928 1.301 2.928 2.901v3.2c0 1.6-1.314 2.901-2.928 2.901Z" fill="#00B95B"/>
    <path d="M20.255 16.8a.44.44 0 0 1-.447-.434v-1.752c0-.963-.808-1.747-1.8-1.747a1.88 1.88 0 0 0-1.28.506 1.708 1.708 0 0 0-.532 1.233v1.76c0 .24-.2.434-.447.434a.44.44 0 0 1-.447-.434v-1.752c.003-.71.286-1.366.798-1.856.51-.492 1.17-.739 1.909-.758 1.484 0 2.693 1.173 2.693 2.614v1.752c0 .24-.2.434-.447.434Z" fill="#00B95B"/>
  </svg>
  <svg width="37" height="36" viewBox="0 0 37 36" fill="none" class="i" id="statvisits">
    <circle opacity=".1" cx="18.002" cy="18" r="18" fill="#FF4757"/>
    <path d="M15.392 23.346c-.018 0-.042.012-.06.012a6.003 6.003 0 0 1-2.694-2.694c0-.018.012-.042.012-.06.732.216 1.488.378 2.238.504.132.756.288 1.506.504 2.238Zm7.974-2.676a6.056 6.056 0 0 1-2.79 2.742c.228-.762.42-1.53.546-2.304.756-.126 1.5-.288 2.232-.504-.006.024.012.048.012.066Zm.048-5.244a18.986 18.986 0 0 0-2.292-.546 16.749 16.749 0 0 0-.546-2.292 6.031 6.031 0 0 1 2.838 2.838Zm-8.022-2.772a18.749 18.749 0 0 0-.498 2.232c-.774.12-1.542.312-2.304.54a6.056 6.056 0 0 1 2.742-2.79c.018 0 .042.018.06.018Zm4.704 2.1a18.797 18.797 0 0 0-4.188 0c.15-.822.342-1.644.612-2.436.012-.048.006-.084.012-.132.474-.114.96-.186 1.47-.186.504 0 .996.072 1.464.186.006.048.006.084.018.132.27.798.462 1.614.612 2.436Zm-5.34 5.34a16.821 16.821 0 0 1-2.436-.612c-.048-.012-.084-.006-.132-.012a6.243 6.243 0 0 1-.186-1.47c0-.504.072-.996.186-1.464.048-.006.084-.006.132-.018a17.857 17.857 0 0 1 2.436-.612 19.544 19.544 0 0 0 0 4.188ZM24.002 18c0 .51-.072.996-.186 1.47-.048.006-.084 0-.132.012-.798.264-1.614.462-2.436.612a18.797 18.797 0 0 0 0-4.188c.822.15 1.644.342 2.436.612a.5.5 0 0 0 .132.018c.114.474.186.96.186 1.464Zm-3.906 3.246c-.15.828-.342 1.644-.612 2.436-.012.048-.012.084-.018.132-.468.114-.96.186-1.464.186-.51 0-.996-.072-1.47-.186-.006-.048 0-.084-.012-.132a17.862 17.862 0 0 1-.612-2.436c.696.078 1.392.132 2.094.132s1.404-.054 2.094-.132Zm.164-.988c-1.5.19-3.016.19-4.516 0a17.96 17.96 0 0 1 0-4.516c1.5-.19 3.015-.19 4.516 0 .19 1.5.19 3.015 0 4.516Z" fill="#FF4757"/>
  </svg>
  <svg width="21" height="20" viewBox="0 0 21 20" fill="none" class="i" id="studio">
    <circle cx="10.002" cy="10" r="9" fill="#FF8C3F" stroke="#191B1D" stroke-width="2"/>
    <path d="m14.929 9.03-.354-.353a.25.25 0 0 0-.353 0l-.177.176-.452-.451a.996.996 0 0 0-.255-.963l-.707-.707a2.5 2.5 0 0 0-3.536 0l1.414.707v.293a1 1 0 0 0 .293.707l.768.768c.261.261.63.343.963.255l.451.452-.176.177a.25.25 0 0 0 0 .353l.353.354a.25.25 0 0 0 .354 0l1.414-1.414a.25.25 0 0 0 0-.354Zm-4.48-.237a1.524 1.524 0 0 1-.154-.187l-3.986 3.721a.966.966 0 1 0 1.365 1.366l3.721-3.985a1.516 1.516 0 0 1-.178-.147l-.768-.768Z" fill="#fff"/>
  </svg>
  <svg width="22" height="20" viewBox="0 0 22 20" fill="none" class="i" id="trade">
    <path d="M22 16.848c0-.023-.011-.046-.011-.07-.012-.09-.023-.182-.057-.263a1.045 1.045 0 0 0-.169-.263s0-.012-.011-.012a.874.874 0 0 0-.27-.183.799.799 0 0 0-.328-.069l-5.266.023h-.011a2.17 2.17 0 0 1-1.737-.871l-1.375-1.8a.824.824 0 0 0-1.184-.149.857.857 0 0 0-.147 1.204l1.376 1.8a3.894 3.894 0 0 0 3.078 1.535h.011l3.214-.011-.8.814a.875.875 0 0 0 0 1.215.83.83 0 0 0 .597.252.83.83 0 0 0 .598-.252l2.255-2.293a.893.893 0 0 0 .18-.275c.034-.114.057-.23.057-.332ZM6.969 3.906a3.87 3.87 0 0 0-3.158-1.64H3.79l-2.943.012a.859.859 0 0 0-.846.86c0 .47.383.86.846.86l2.943-.012h.01c.71 0 1.376.344 1.782.929L6.8 6.635a.86.86 0 0 0 .687.355c.17 0 .35-.058.497-.16a.87.87 0 0 0 .191-1.205L6.97 3.906Zm15.02-.699c0-.023.011-.046.011-.058a.89.89 0 0 0-.248-.608L19.497.25a.841.841 0 0 0-1.196 0 .875.875 0 0 0 0 1.215l.801.814-3.078-.011H16a3.854 3.854 0 0 0-3.236 1.765L5.559 15.014a2.194 2.194 0 0 1-1.827.997h-.01l-2.876-.012a.852.852 0 0 0-.846.86c0 .47.372.86.846.86l2.875.011h.023a3.84 3.84 0 0 0 3.236-1.765l7.206-10.981a2.194 2.194 0 0 1 1.826-.998h.012l5.13.023a.873.873 0 0 0 .598-.252s0-.011.011-.011a.807.807 0 0 0 .17-.264c.033-.092.044-.184.056-.275Z" fill="#fff"/>
  </svg>
  <svg width="16" height="20" viewBox="0 0 16 20" fill="none" class="i" id="statistics">
    <path d="M0 12.222c0-.613.512-1.11 1.143-1.11s1.143.497 1.143 1.11v6.667c0 .614-.512 1.111-1.143 1.111S0 19.503 0 18.889v-6.667ZM6.857 1.111C6.857.497 7.37 0 8 0s1.143.497 1.143 1.111V18.89C9.143 19.503 8.63 20 8 20s-1.143-.497-1.143-1.111V1.11Zm6.857 7.778c0-.614.512-1.111 1.143-1.111S16 8.275 16 8.888v10c0 .614-.512 1.112-1.143 1.112s-1.143-.497-1.143-1.111v-10Z" fill="#fff"/>
  </svg>
  <svg width="10" height="6" viewBox="0 0 10 6" fill="none" class="i" id="arrowdown">
    <path d="M5.6369 5.25357C5.55327 5.33165 5.45377 5.39363 5.34414 5.43593C5.23452 5.47822 5.11693 5.5 4.99817 5.5C4.8794 5.5 4.76182 5.47822 4.65219 5.43593C4.54256 5.39363 4.44306 5.33165 4.35943 5.25357L0.760907 1.92112C0.594706 1.76594 0.501009 1.5565 0.500015 1.33794C0.49933 1.2283 0.522023 1.11961 0.566792 1.0181C0.611563 0.916601 0.677528 0.824279 0.760907 0.746433C0.84454 0.668347 0.944039 0.606368 1.05367 0.564072C1.1633 0.521776 1.28088 0.5 1.39964 0.5C1.51841 0.5 1.63599 0.521776 1.74562 0.564072C1.85525 0.606368 1.95475 0.668347 2.03838 0.746433L4.99817 3.48737L7.95795 0.763096C8.12735 0.606218 8.35712 0.518084 8.59669 0.518084C8.71531 0.518085 8.83278 0.539722 8.94237 0.581761C9.05197 0.6238 9.15155 0.685418 9.23543 0.763096C9.31931 0.840774 9.38584 0.932991 9.43124 1.03448C9.47663 1.13597 9.5 1.24475 9.5 1.35461C9.5 1.57646 9.40483 1.78924 9.23543 1.94611L5.6369 5.25357Z" fill="#2176FF"/>
  </svg>
  <svg width="18" height="4" viewBox="0 0 18 4" fill="none" class="i" id="more">
    <path d="M4 2a2 2 0 1 1-4 0 2 2 0 0 1 4 0Zm7 0a2 2 0 1 1-4 0 2 2 0 0 1 4 0Zm7 0a2 2 0 1 1-4 0 2 2 0 0 1 4 0Z" fill="#fff"/>
  </svg>
  <svg width="7" height="12" viewBox="0 0 7 12" fill="none" class="i" id="left">
    <path d="M6.634 2.056 2.825 6.002l3.81 3.947a1.202 1.202 0 0 1 .344.851 1.23 1.23 0 0 1-.345.852A1.149 1.149 0 0 1 5.83 12a1.135 1.135 0 0 1-.826-.348L.344 6.854A1.202 1.202 0 0 1 0 6.002a1.23 1.23 0 0 1 .345-.851L5.004.353A1.168 1.168 0 0 1 5.83 0a1.14 1.14 0 0 1 .827.353A1.208 1.208 0 0 1 7 1.204c0 .159-.03.315-.089.461a1.275 1.275 0 0 1-.277.391Z" fill="#333536"/>
  </svg>
  <svg width="7" height="12" viewBox="0 0 7 12" fill="none" class="i" id="right">
    <path d="m.343 2.056 3.832 3.946L.365 9.95a1.202 1.202 0 0 0-.344.851 1.23 1.23 0 0 0 .345.852c.214.219.502.344.804.348a1.135 1.135 0 0 0 .826-.348l4.66-4.798A1.202 1.202 0 0 0 7 6.002a1.23 1.23 0 0 0-.345-.851L1.996.353A1.168 1.168 0 0 0 1.17 0a1.14 1.14 0 0 0-.827.353A1.207 1.207 0 0 0 0 1.204a1.236 1.236 0 0 0 .343.852Z" fill="#333536"/>
  </svg>
  <svg width="14" height="13" viewBox="0 0 14 13" fill="none" class="i" id="gift">
    <path d="M.875 11.643c0 .474.391.857.875.857h4.375V8.214H.875v3.429Zm7 .857h4.375a.865.865 0 0 0 .875-.857V8.214h-5.25V12.5Zm5.25-8.571h-1.151c.17-.325.276-.683.276-1.072C12.25 1.558 11.17.5 9.844.5c-1.138 0-1.873.57-2.817 1.83C6.084 1.07 5.348.5 4.211.5 2.885.5 1.805 1.558 1.805 2.857c0 .389.104.747.276 1.072H.875A.865.865 0 0 0 0 4.786v2.143c0 .235.197.428.438.428h13.124A.435.435 0 0 0 14 6.929V4.786a.865.865 0 0 0-.875-.857Zm-8.917 0c-.604 0-1.094-.48-1.094-1.072 0-.592.49-1.071 1.094-1.071.544 0 .946.088 2.354 2.143H4.208Zm5.636 0H7.489c1.406-2.05 1.797-2.143 2.355-2.143.604 0 1.094.48 1.094 1.071 0 .592-.49 1.072-1.094 1.072Z" fill="#fff"/>
  </svg>
  <svg width="17" height="17" viewBox="0 0 17 17" fill="none" class="i" id="pin" style="fill: none !important;">
    <path d="M10.367 2.77c0.463 -0.309 0.694 -0.463 0.946 -0.438 0.252 0.025 0.448 0.221 0.842 0.614l1.9 1.9c0.393 0.393 0.589 0.589 0.614 0.842 0.025 0.252 -0.129 0.483 -0.437 0.946l-1.169 1.752c-0.397 0.597 -0.596 0.895 -0.755 1.214a5.67 5.67 0 0 0 -0.302 0.73c-0.113 0.338 -0.184 0.69 -0.324 1.393l-0.135 0.676 -0.001 0.004a0.708 0.708 0 0 1 -1.096 0.443l-0.004 -0.003 -0.019 -0.013a24.792 24.792 0 0 1 -6.269 -6.274l-0.003 -0.004a0.708 0.708 0 0 1 0.443 -1.096l0.004 -0.001 0.676 -0.135c0.703 -0.141 1.055 -0.211 1.393 -0.324a5.665 5.665 0 0 0 0.73 -0.302c0.319 -0.159 0.618 -0.358 1.215 -0.756l1.752 -1.168Z" stroke="#CCD2E3" stroke-width="1.4166666666666667"/>
    <path d="m3.542 13.458 3.188 -3.188" stroke="#CCD2E3" stroke-width="1.4166666666666667" stroke-linecap="round"/>
  </svg>
  <svg width="17" height="17" viewBox="0 0 17 17" fill="none" class="i" id="pinned">
    <path d="M10.367 2.769c0.462 -0.309 0.694 -0.463 0.946 -0.438 0.252 0.025 0.448 0.221 0.841 0.614l1.9 1.9c0.393 0.393 0.589 0.589 0.614 0.841 0.026 0.252 -0.129 0.483 -0.437 0.946l-1.169 1.752c-0.397 0.597 -0.597 0.895 -0.755 1.214a5.67 5.67 0 0 0 -0.303 0.73c-0.113 0.338 -0.185 0.69 -0.325 1.393l-0.134 0.677 -0.002 0.004a0.708 0.708 0 0 1 -1.096 0.443l-0.003 -0.003 -0.019 -0.013a24.792 24.792 0 0 1 -6.269 -6.275l-0.003 -0.004a0.708 0.708 0 0 1 0.443 -1.096l0.004 -0.001 0.677 -0.135c0.703 -0.141 1.056 -0.211 1.393 -0.325a5.664 5.664 0 0 0 0.729 -0.303c0.319 -0.159 0.618 -0.358 1.215 -0.756l1.752 -1.168Z" fill="#fff" stroke="#fff" stroke-width="1.4166666666666667"/>
    <path d="m3.542 13.458 3.188 -3.188" stroke="#fff" stroke-width="1.4166666666666667" stroke-linecap="round"/>
  </svg>
  <svg width="20" height="20" viewBox="0 0 20 20" fill="none" class="i" id="leaderboard-badge">
    <path opacity=".5" d="M6.67 12.273H2c-1.1 0-2 .87-2 1.932V20h6.67v-7.727Z" fill="#F6AB2F"/>
    <path d="M11.33 8.41H8.66c-1.1 0-2 .87-2 1.932V20h6.67v-9.658c0-1.063-.89-1.932-2-1.932Z" fill="#F6AB2F"/>
    <path opacity=".5" d="M18 15.17h-4.67V20H20v-2.898c0-1.062-.9-1.931-2-1.931Z" fill="#F6AB2F"/>
    <path d="M13.01 3.436c.31-.3.43-.657.33-.966-.1-.309-.41-.531-.85-.599l-.96-.154a.327.327 0 0 1-.15-.106L10.85.587c-.4-.783-1.31-.783-1.71 0L8.61 1.61a.327.327 0 0 1-.15.106l-.96.154c-.44.068-.74.29-.85.6-.1.308.02.666.33.965l.74.724c.03.03.07.145.06.184l-.21.888c-.16.657.1.957.27 1.082.17.116.54.27 1.15-.077l.9-.512c.04-.029.17-.029.21 0l.9.512c.28.164.51.212.69.212.21 0 .36-.077.45-.135.17-.116.43-.415.27-1.082l-.21-.888c-.01-.048.02-.155.06-.184l.75-.724Z" fill="#fff"/>
  </svg>
  <svg width="20" height="16.842" viewBox="0 0 20 16.842" fill="none" class="i" id="top-badge">
    <path d="M19.996 2.433v9.122c0 2.628-2.122 4.761-4.737 4.761H5.785c-.435 0-.852-.057-1.26-.172-.587-.161-.776-.914-.341-1.352L14.255 4.671c.208-.21.521-.257.815-.2a.996.996 0 0 0 .871-.257l2.435-2.457c.89-.895 1.62-.6 1.62.676Z" fill="#F6AB2F"/>
    <path d="m13.023 4.004-9.919 9.969a.947.947 0 0 1-1.515-.228 4.594 4.594 0 0 1-.54-2.19V2.433c0-1.276.729-1.571 1.62-.676l2.444 2.466a.969.969 0 0 0 1.345 0L9.85.805a.95.95 0 0 1 1.345 0l1.838 1.847c.36.371.36.981-.01 1.352Z" fill="#fff"/>
  </svg>
  <svg width="20" height="18.947" viewBox="0 0 20 18.947" fill="none" class="i" id="developer-edition-badge">
    <path fill-rule="evenodd" clip-rule="evenodd" d="M19.996 9.495c0 .927-1.516 1.619-1.8 2.452-.284.833.521 2.346 0 3.039-.521.692-2.179.41-2.913.938s-.936 2.159-1.824 2.452c-.888.293-1.978-.939-2.925-.939-.947 0-2.072 1.174-2.925.939-.853-.235-1.089-1.924-1.824-2.452-.734-.528-2.368-.211-2.913-.938-.545-.728.273-2.159 0-3.039-.272-.88-1.823-1.525-1.823-2.452s1.515-1.619 1.8-2.452c.284-.833-.522-2.346 0-3.038.521-.692 2.19-.411 2.936-.939.746-.527.924-2.158 1.812-2.487.888-.328 1.978.974 2.925.974.948 0 2.073-1.173 2.925-.938.853.234 1.078 1.924 1.812 2.451.734.528 2.368.212 2.913.939.545.727-.272 2.159 0 3.038.273.88 1.824 1.525 1.824 2.452Z" fill="#5865F2"/>
    <path d="m15.114 8.453-.377-.372a.27.27 0 0 0-.378 0l-.188.186-.482-.476c.094-.35.006-.738-.273-1.013l-.755-.744a2.695 2.695 0 0 0-3.774 0l1.51.744v.308c0 .28.112.547.312.745l.82.808c.279.275.672.361 1.028.269l.482.475-.189.186a.26.26 0 0 0 0 .372l.378.373a.27.27 0 0 0 .377 0l1.51-1.489a.26.26 0 0 0-.001-.372Zm-4.782-.25a1.53 1.53 0 0 1-.164-.197l-4.255 3.918a1.007 1.007 0 0 0-.026 1.462 1.042 1.042 0 0 0 1.484-.025l3.972-4.195a1.577 1.577 0 0 1-.191-.155l-.82-.808Z" fill="#fff"/>
  </svg>
  <svg width="14" height="19.384" viewBox="0 0 14 19.384" fill="none" class="i" id="tester-badge">
    <path d="M1.145 10.98h3.063v7.243c0 1.067 1.307 1.569 2.001.765l7.501-8.652c.655-.754.129-1.931-.862-1.931H9.786V1.161c0-1.066-1.308-1.569-2.001-.764L.283 9.048c-.643.755-.119 1.932.862 1.932Z" fill="#FF4757"/>
  </svg>
  <svg width="17" height="16" viewBox="0 0 17 16" fill="none" class="i" id="employee-badge">
    <path d="M15.205 8c0 .679.534 1.23 1.191 1.23.331 0 .6.278.6.62v2.229c0 1.886-1.486 3.421-3.314 3.421H4.31c-1.828 0-3.314-1.535-3.314-3.421v-2.23a.61.61 0 0 1 .6-.619c.657 0 1.191-.551 1.191-1.23 0-.66-.512-1.158-1.19-1.158a.59.59 0 0 1-.425-.18.63.63 0 0 1-.176-.439V3.92C.997 2.034 2.485.5 4.312.5h9.37c1.827 0 3.314 1.534 3.314 3.42l.001 2.231a.63.63 0 0 1-.176.439.59.59 0 0 1-.424.18c-.657 0-1.191.552-1.191 1.23Z" fill="#F6AB2F"/>
    <path fill-rule="evenodd" clip-rule="evenodd" d="m10.797 8.614.943-.957a.627.627 0 0 0 .15-.633.592.592 0 0 0-.477-.418l-1.303-.198-.583-1.23a.587.587 0 0 0-.53-.344h-.002a.589.589 0 0 0-.53.343l-.583 1.23-1.301.198a.597.597 0 0 0-.48.419.63.63 0 0 0 .15.633l.943.957-.223 1.352a.625.625 0 0 0 .236.604.575.575 0 0 0 .348.119.571.571 0 0 0 .274-.073l1.166-.638 1.164.637a.564.564 0 0 0 .624-.045.622.622 0 0 0 .237-.604l-.223-1.352Z" fill="#fff"/>
  </svg>
  <svg width="19" height="18" viewBox="0 0 19 18" fill="none" class="i" id="icon-visible">
    <path fill-rule="evenodd" clip-rule="evenodd" d="M15.737 12.116a19.5 19.5 0 0 0 1.951-2.05c.388-.472.582-.707.582-1.066s-.194-.594-.582-1.066C16.268 6.21 13.136 3 9.5 3c-.84 0-1.652.171-2.423.456l2.547 2.547a3 3 0 0 1 2.874 2.873zM6.893 7.514a3 3 0 0 0 4.093 4.092l2.301 2.303C12.136 14.555 10.853 15 9.5 15c-3.636 0-6.768-3.21-8.188-4.934C.924 9.594.73 9.359.73 9s.194-.594.582-1.066c.673-.817 1.732-1.97 3.046-2.954z" fill="#fff"/>
    <path d="m1.5 1 16 16" stroke="#fff" stroke-width="2"/>
  </svg>
  <svg width="18" height="12" viewBox="0 0 18 12" fill="none" class="i" id="icon-hidden">
    <path fill-rule="evenodd" clip-rule="evenodd" d="M17.77 6c0-.359-.194-.594-.582-1.066C15.768 3.21 12.636 0 9 0S2.232 3.21.812 4.934C.424 5.406.23 5.641.23 6s.194.594.582 1.066C2.232 8.79 5.364 12 9 12s6.768-3.21 8.188-4.934c.388-.472.582-.707.582-1.066M9 9a3 3 0 1 0 0-6 3 3 0 0 0 0 6" fill="#fff"/>
  </svg>
  <svg width="20" height="15" viewBox="0 0 20 15" fill="none" class="i" id="icon-shop">
    <path d="M6 1 4 5m10-4 2 4" stroke="#fff" stroke-width="2" stroke-linecap="round"/>
    <path fill-rule="evenodd" clip-rule="evenodd" d="M19 6h-1.198a1 1 0 0 0-.976.783l-1.478 6.65A2 2 0 0 1 13.396 15H6.604a2 2 0 0 1-1.952-1.566l-1.478-6.65A1 1 0 0 0 2.198 6H1a1 1 0 0 1 0-2h18a1 1 0 1 1 0 2M9 8a1 1 0 0 0-2 0v3a1 1 0 1 0 2 0zm4 0a1 1 0 1 0-2 0v3a1 1 0 1 0 2 0z" fill="#fff"/>
  </svg>
</svg>